<svg width="27" height="31" viewBox="0 0 27 31" fill="none" xmlns="http://www.w3.org/2000/svg">
<path d="M21.7737 16.3824C21.7588 13.8414 22.91 11.9263 25.235 10.5143C23.9346 8.65135 21.9674 7.62675 19.3742 7.42928C16.9189 7.23554 14.2326 8.85999 13.249 8.85999C12.2095 8.85999 9.83243 7.49634 7.96207 7.49634C4.10212 7.55596 0 10.5739 0 16.714C0 18.5285 0.331598 20.4026 0.994793 22.3325C1.88154 24.8736 5.07829 31.0994 8.41289 30.9988C10.1566 30.9578 11.3898 29.7618 13.6588 29.7618C15.8608 29.7618 17.0009 30.9988 18.9458 30.9988C22.3102 30.9504 25.2014 25.2908 26.0435 22.7424C21.5315 20.6149 21.7737 16.5128 21.7737 16.3824ZM17.8578 5.01867C19.7468 2.77573 19.5754 0.733986 19.5196 0C17.8504 0.0968712 15.9204 1.13637 14.8213 2.41433C13.6104 3.78543 12.8988 5.48068 13.0515 7.39202C14.8548 7.52988 16.5016 6.60215 17.8578 5.01867Z" fill="white"/>
</svg>
