<svg width="31" height="31" viewBox="0 0 31 31" fill="none" xmlns="http://www.w3.org/2000/svg">
<path fill-rule="evenodd" clip-rule="evenodd" d="M15.5 0C6.93883 0 0 6.94013 0 15.5C0 24.0599 6.93883 31 15.5 31C24.0599 31 31 24.0599 31 15.5C31 6.94013 24.0599 0 15.5 0ZM15.6808 24.5649C10.6847 24.5649 6.63917 20.5091 6.63917 15.5C6.63917 10.4909 10.6847 6.43508 15.6808 6.43508C18.1221 6.43508 20.1629 7.33537 21.7284 8.79754L19.1787 11.3525V11.3473C18.2293 10.4405 17.0255 9.97554 15.6808 9.97554C12.6971 9.97554 10.2726 12.502 10.2726 15.4948C10.2726 18.485 12.6971 21.0193 15.6808 21.0193C18.3882 21.0193 20.2301 19.4667 20.6098 17.3355H15.6808V13.8002H24.1865C24.3001 14.4072 24.3608 15.0402 24.3608 15.7041C24.3608 20.8837 20.903 24.5649 15.6808 24.5649Z" fill="white"/>
</svg>
