<svg width="115" height="49" viewBox="0 0 115 49" fill="none" xmlns="http://www.w3.org/2000/svg">
<path d="M56.2323 15.4933C56.2323 24.05 49.2957 30.9865 40.739 30.9865C32.1823 30.9865 25.2457 24.05 25.2457 15.4933C25.2457 6.93657 32.1823 0 40.739 0C49.2957 0 56.2323 6.93657 56.2323 15.4933Z" fill="#F1A501"/>
<path d="M17.7856 19.4357V33.4567C17.7856 35.0574 17.425 36.4605 16.7037 37.666C15.9922 38.8714 14.9597 39.7953 13.606 40.4376C12.2523 41.0798 10.6516 41.4009 8.80389 41.4009C6.01747 41.4009 3.85355 40.6895 2.31213 39.2667C0.770711 37.8339 0 35.8775 0 33.3974V19.4357H4.5798V32.7008C4.5798 34.3707 4.91575 35.5959 5.58765 36.3765C6.25955 37.1571 7.37116 37.5474 8.92246 37.5474C10.4244 37.5474 11.5113 37.1571 12.1832 36.3765C12.8649 35.586 13.2058 34.3509 13.2058 32.6712V19.4357H17.7856Z" fill="black"/>
<path d="M27.2565 41.1045H22.736V18.0425H27.2565V41.1045Z" fill="black"/>
<path d="M31.8215 20.2509C31.8215 18.7786 32.6416 18.0425 34.2818 18.0425C35.922 18.0425 36.7422 18.7786 36.7422 20.2509C36.7422 20.9524 36.5347 21.5008 36.1197 21.896C35.7145 22.2814 35.1019 22.4741 34.2818 22.4741C32.6416 22.4741 31.8215 21.733 31.8215 20.2509ZM36.5347 41.1045H32.0141V24.5342H36.5347V41.1045Z" fill="black"/>
<path d="M56.588 41.1045H52.0674V31.4262C52.0674 30.2306 51.855 29.3364 51.4301 28.7435C51.0052 28.1408 50.3284 27.8394 49.3996 27.8394C48.1348 27.8394 47.2209 28.2643 46.6576 29.114C46.0944 29.9539 45.8128 31.3521 45.8128 33.3085V41.1045H41.2923V24.5342H44.7457L45.3534 26.6537H45.6053C46.1093 25.8533 46.8009 25.2506 47.6803 24.8455C48.5696 24.4305 49.5774 24.223 50.7039 24.223C52.6306 24.223 54.093 24.7467 55.091 25.7941C56.089 26.8315 56.588 28.3334 56.588 30.2997V41.1045Z" fill="black"/>
<path d="M65.5845 32.0931L67.5558 29.5735L72.1948 24.5342H77.2934L70.7127 31.7226L77.6936 41.1045H72.4765L67.704 34.3904L65.7624 35.9467V41.1045H61.2419V18.0425H65.7624V28.3285L65.5252 32.0931H65.5845Z" fill="black"/>
<path d="M91.8035 41.1045L91.1958 38.9851H90.9587C90.4745 39.7558 89.7878 40.3536 88.8985 40.7784C88.0092 41.1934 86.9964 41.4009 85.8601 41.4009C83.9136 41.4009 82.4463 40.8822 81.4582 39.8447C80.4701 38.7973 79.9761 37.2954 79.9761 35.339V24.5342H84.4966V34.2126C84.4966 35.4082 84.709 36.3073 85.1339 36.9101C85.5588 37.5029 86.2356 37.7994 87.1644 37.7994C88.4292 37.7994 89.3432 37.3794 89.9064 36.5395C90.4696 35.6898 90.7512 34.2867 90.7512 32.3303V24.5342H95.2717V41.1045H91.8035Z" fill="black"/>
<path d="M97.6431 24.5342H102.593L105.721 33.8569C105.988 34.6671 106.17 35.6256 106.269 36.7322H106.358C106.467 35.7145 106.679 34.756 106.995 33.8569L110.063 24.5342H114.91L107.9 43.224C107.257 44.9531 106.338 46.2475 105.143 47.1072C103.957 47.9668 102.569 48.3966 100.978 48.3966C100.197 48.3966 99.4316 48.3126 98.6806 48.1447V44.5579C99.2241 44.6863 99.8169 44.7506 100.459 44.7506C101.26 44.7506 101.956 44.5035 102.549 44.0095C103.152 43.5253 103.621 42.7892 103.957 41.8011L104.224 40.9859L97.6431 24.5342Z" fill="black"/>
</svg>
