<svg width="156" height="138" viewBox="0 0 156 138" fill="none" xmlns="http://www.w3.org/2000/svg">
<path d="M86.4757 73.9458C85.1493 74.0119 83.8978 74.3745 82.7988 75.0106C79.9283 76.6118 78.5144 79.432 79.6411 81.3091C80.7678 83.1863 84.0081 83.409 86.8787 81.8078C87.9982 81.206 88.9479 80.3411 89.6694 79.2666C90.001 78.7441 89.973 78.0051 89.5982 77.3822L88.1345 74.9436C87.7616 74.3194 87.1107 73.9282 86.4757 73.9458Z" fill="#D5D6DB"/>
<path d="M78.781 46.9449C77.8192 46.993 76.9116 47.2561 76.1147 47.7175C74.0336 48.8783 73.0077 50.9231 73.824 52.2832C74.6403 53.6433 76.9908 53.8047 79.0716 52.644C79.8834 52.2073 80.5719 51.5797 81.0952 50.8005C81.3353 50.4216 81.3149 49.8862 81.0432 49.4346L79.9834 47.6688C79.7132 47.2163 79.2415 46.9323 78.781 46.9449Z" fill="#D5D6DB"/>
<path d="M65.9019 45.8798C65.6776 45.8088 65.4511 45.8268 65.2665 45.9298L60.3972 48.6382C59.9897 48.8638 59.892 49.4349 60.1793 49.9141C60.245 50.0238 60.328 50.123 60.4236 50.2056L75.0578 62.9187L91.2946 53.8875L65.9019 45.8798Z" fill="#029BC5"/>
<path d="M123.043 51.3065L75.8711 79.3056L46.8435 87.4193L31.549 87.8512L29.3519 84.0132L108.146 38.5873C110.493 37.2254 113.233 36.6586 116.09 36.9445C117.342 37.0777 118.602 37.3869 119.841 37.8643C120.938 38.2776 122.003 38.8575 123.005 39.5866C124.125 40.4094 126.112 40.8889 126.912 42.2324C126.914 42.2309 129.162 48.103 123.043 51.3065Z" fill="#E1E6E9"/>
<path d="M73.4818 70.8404L56.8291 106.352C56.6294 106.858 56.8771 107.52 57.3819 107.83C57.6917 108.021 58.0423 108.041 58.3135 107.885L63.3746 104.972C64.3481 104.411 65.1697 103.615 65.7889 102.633L100.816 54.1156L73.4818 70.8404Z" fill="#029BC5"/>
<path d="M21.3358 70.5344C20.974 70.338 20.5732 70.3234 20.2599 70.4951L16.3266 72.6502C15.7906 72.9435 15.6621 73.686 16.0396 74.3088C16.1115 74.4273 16.1987 74.5362 16.2985 74.6315L29.9145 87.6623L41.5247 81.4847L21.3358 70.5344Z" fill="#029BC5"/>
<path d="M32.226 88.111L26.7124 97.9461C26.6311 98.0871 26.6825 98.2952 26.8272 98.4107C26.9315 98.494 27.0607 98.5091 27.156 98.4492L31.0849 96.176C31.1155 96.1583 31.1419 96.1338 31.1625 96.1038L39.5096 83.9027L32.226 88.111Z" fill="#029BC5"/>
<path d="M120.495 37.0799C119.286 36.6328 118.055 36.3428 116.832 36.2161C115.879 37.8535 115.393 39.8099 115.422 41.89C115.461 42.3145 115.813 42.6848 116.209 42.7171C116.331 42.727 116.449 42.703 116.55 42.6471L123.582 38.6901C122.605 38.009 121.565 37.4669 120.495 37.0799Z" fill="#029BC5"/>
<path d="M104.118 44.8435L108.321 42.6036L113.712 51.3698L109.508 53.6096L104.118 44.8435Z" fill="#D5D6DB"/>
<path d="M100.837 48.6592C100.324 48.9316 100.203 49.6343 100.567 50.2286L101.157 51.1915C101.538 51.7762 102.253 52.0131 102.753 51.7206C103.229 51.442 103.343 50.78 103.013 50.2054L102.423 49.2425C102.06 48.6487 101.35 48.3875 100.837 48.6592Z" fill="#3A556A"/>
<path d="M96.3725 51.4317C95.8598 51.7041 95.739 52.4067 96.103 53.0011L96.6928 53.964C97.0738 54.5486 97.7882 54.7855 98.2886 54.4931C98.7647 54.2145 98.8786 53.5524 98.5487 52.9778L97.959 52.015C97.5951 51.4212 96.885 51.16 96.3725 51.4317Z" fill="#3A556A"/>
<path d="M91.9068 54.2048C91.3948 54.4778 91.2747 55.1797 91.6384 55.7735L92.2282 56.7364C92.6092 57.321 93.3236 57.5579 93.824 57.2655C94.3001 56.9869 94.414 56.3249 94.0841 55.7503L93.4944 54.7874C93.1304 54.1931 92.4197 53.9323 91.9068 54.2048Z" fill="#3A556A"/>
<path d="M87.4425 56.9772C86.9305 57.2502 86.8104 57.9522 87.1741 58.546L87.7639 59.5089C88.1449 60.0935 88.8593 60.3305 89.3597 60.038C89.8358 59.7594 89.9497 59.0974 89.6198 58.5228L89.0301 57.5599C88.6659 56.9657 87.9552 56.7048 87.4425 56.9772Z" fill="#3A556A"/>
<path d="M82.9777 59.7493C82.4659 60.0221 82.3457 60.7236 82.7093 61.317L83.2988 62.2792C83.6621 62.8724 84.3718 63.1329 84.8839 62.8609C85.3959 62.589 85.5164 61.8877 85.153 61.2945L84.5635 60.3323C84.2008 59.7388 83.4912 59.4776 82.9787 59.7488C82.9783 59.749 82.9781 59.7491 82.9777 59.7493Z" fill="#3A556A"/>
<path d="M78.5132 62.5218C78.0014 62.7946 77.8813 63.496 78.2449 64.0895L78.8343 65.0517C79.1977 65.6449 79.9074 65.9053 80.4194 65.6334C80.9315 65.3615 81.052 64.6602 80.6886 64.067L80.0991 63.1048C79.7364 62.5112 79.0268 62.2501 78.5143 62.5212C78.5139 62.5215 78.5135 62.5217 78.5132 62.5218Z" fill="#3A556A"/>
<path d="M74.0487 65.2943C73.5369 65.5671 73.4167 66.2685 73.7803 66.8619L74.3698 67.8242C74.7338 68.417 75.4437 68.6764 75.955 68.4038C76.4655 68.1317 76.5858 67.4319 76.2238 66.8396L75.6343 65.8773C75.271 65.2838 74.5612 65.0227 74.0487 65.2943Z" fill="#3A556A"/>
<path d="M69.584 68.0669C69.0723 68.3397 68.9521 69.0412 69.3157 69.6347L69.9052 70.5969C70.2692 71.1898 70.9791 71.4492 71.4904 71.1766C72.0009 70.9045 72.1212 70.2046 71.7592 69.6123L71.1697 68.65C70.8064 68.0564 70.0966 67.7954 69.584 68.0669Z" fill="#3A556A"/>
<path d="M65.1198 70.8394C64.608 71.1122 64.4878 71.8137 64.8514 72.4071L65.4409 73.3694C65.8049 73.9622 66.5148 74.2215 67.0261 73.949C67.5366 73.6769 67.6569 72.977 67.2949 72.3847L66.7054 71.4225C66.3419 70.8291 65.6321 70.568 65.1198 70.8394Z" fill="#3A556A"/>
<path d="M60.6539 73.6126C60.1419 73.8845 60.0214 74.5859 60.3848 75.1791L60.3856 75.1803L60.975 76.1426C61.3391 76.7355 62.049 76.9948 62.5603 76.7222C63.0708 76.4501 63.1911 75.7502 62.8291 75.1579L62.2396 74.1957C61.8763 73.6021 61.1665 73.341 60.6539 73.6126Z" fill="#3A556A"/>
<path d="M56.1908 76.3841C55.6787 76.656 55.5582 77.3573 55.9216 77.9505L55.9224 77.9518L56.5119 78.914C56.8759 79.5069 57.5858 79.7662 58.0972 79.4937C58.6077 79.2216 58.7279 78.5217 58.3659 77.9294L57.7765 76.9672C57.4129 76.3737 56.7031 76.1127 56.1908 76.3841Z" fill="#3A556A"/>
</svg>
